# xmcd
#
# Track frame offsets:
#	150
#	13344
#	24392
#	42740
#	56130
#	68460
#	84328
#	99751
#	115564
#	129594
#	146103
#	163143
#	179597
#	194045
#	211837
#	229098
#	244102
#	260556
#	276786
#	290844
#	306350
#	321021
#	338115
#
# Disc length: 4685
#
# Revision: 1
# Processed by: cddbd v1.5.1PL0 Copyright (c) Steve Scherf et al.
# Submitted via: EasyCDDAExtractor 4.6.9.1
# Normalized: r0:DSETVAR1,TDELIM( - )
#
DISCID=5c124b17
DTITLE=Various Artist - 80's Vinyl Country
DYEAR=2003
DGENRE=Country
TTITLE0=Barbara Mandrell - In Times Like These
TTITLE1=Sawyer Brown - When Your Heart Goes Woo Woo Woo
TTITLE2=Michael Martin Murphy - Face In The Crowd (with Holly Done)
TTITLE3=Dan Seals - Everybody's Dream Girl
TTITLE4=David Frizzell - Where Are You Spending Your Nights These Days
TTITLE5=Garry Morris - Give Her Thorns And She'll Find Roses
TTITLE6=The Girls Next Door - Slow Boat To China
TTITLE7=Tom Wopat - Rock'n Roll Of Love
TTITLE8=Janie Frickie - Let's Stop Talking About It
TTITLE9=Judy Rodman - She Never Will
TTITLE10=Judy Rodman - Until I Met You
TTITLE11=Kenny Rogers - Crazy
TTITLE12=Kenny Rogers - Love Song
TTITLE13=Merle Haggard - Where The Lonely Go
TTITLE14=Michael Johnson - The Moon Is Still Over Her Shoulder
TTITLE15=Michael Martin Murphy - Long Line Of Love
TTITLE16=Mo Bandy - You Haven't Heard The Last Of Me
TTITLE17=Sawyer Brown - Share In The Moonshine
TTITLE18=Steve Wariner - What I Didn't Do
TTITLE19=The Gatlin Brothers - Half Past Forever
TTITLE20=Janie Frickie - Take Me Away From Here
TTITLE21=Charly McClain - Surround Me With Love
TTITLE22=Don Williams - Miracles
EXTD=
EXTT0=
EXTT1=
EXTT2=
EXTT3=
EXTT4=
EXTT5=
EXTT6=
EXTT7=
EXTT8=
EXTT9=
EXTT10=
EXTT11=
EXTT12=
EXTT13=
EXTT14=
EXTT15=
EXTT16=
EXTT17=
EXTT18=
EXTT19=
EXTT20=
EXTT21=
EXTT22=
PLAYORDER=
